<svg xmlns="http://www.w3.org/2000/svg" viewBox="0 0 318.000000 297.000000">
<style>
  path { fill: #dd0000; }
</style>
<g transform="translate(0.000000,297.000000) scale(1.000000,-1.000000)" stroke="none">
<path d="M152 281 c-25 -35 -55 -75 -55 -76 -1 0 2 -6 6 -13 18 -29 40 -82 43
-103 1 -7 -2 -5 -6 3 -10 26 -28 44 -51 52 -9 3 -27 5 -30 3 -1 0 -48 -58 -48
-58 0 0 7 -1 16 -1 67 0 110 -26 119 -72 2 -8 2 -8 13 -8 12 0 12 0 13 9 9 45
52 71 118 71 9 0 17 1 17 1 0 0 -11 14 -24 30 -23 29 -23 29 -33 28 -34 -2
-62 -24 -74 -59 0 -2 -2 -3 -2 -3 -8 0 20 73 42 109 3 6 6 10 6 11 0 0 -54 73
-63 85 0 0 -3 -4 -7 -9z"/>
</g>
</svg>
